<svg xmlns="http://www.w3.org/2000/svg" viewBox="0 0 269.34 96.17"><defs><style>.cls-1{fill:#e74f84;}.cls-2,.cls-3{fill:#3f4179;}.cls-3{font-size:41.77px;font-family:Hero-Bold, Hero;font-weight:700;}.cls-4{letter-spacing:-0.01em;}</style></defs><g id="Layer_2" data-name="Layer 2"><g id="Layer_1-2" data-name="Layer 1"><path class="cls-1" d="M63,36.19H54v-9a4.72,4.72,0,0,0-4.72-4.72H41a4.72,4.72,0,0,0-4.72,4.72v9H27.22a4.72,4.72,0,0,0-4.72,4.72v8.26a4.72,4.72,0,0,0,4.72,4.72h9.05v9A4.72,4.72,0,0,0,41,67.66h8.26A4.72,4.72,0,0,0,54,62.94v-9H63a4.72,4.72,0,0,0,4.72-4.72V40.91A4.72,4.72,0,0,0,63,36.19Z"/><path class="cls-2" d="M80.82,73A45.1,45.1,0,0,0,71.16,8.55a7,7,0,0,0,.06-.93,7.65,7.65,0,1,0-3.07,6.11A39.14,39.14,0,0,1,84.28,45.37a38.72,38.72,0,0,1-8.36,24.17c-2,2.52-1,6.45,1,13.17A59.69,59.69,0,0,1,78.67,90a57.28,57.28,0,0,1-7.37-3.59C66.89,84,63.08,81.9,60.22,81.9a5.06,5.06,0,0,0-1.77.3A39.15,39.15,0,0,1,22.09,13.73,7.62,7.62,0,1,0,19,7.62a7.3,7.3,0,0,0,.06.94A45.11,45.11,0,0,0,60.3,87.87c1.42.09,5.46,2.28,8.15,3.74,4.51,2.45,8.4,4.56,11.36,4.56a4.8,4.8,0,0,0,3-.91c3.25-2.4,1.75-7.61-.15-14.2C81.89,78.52,80.68,74.34,80.82,73Z"/><text class="cls-3" transform="translate(102.26 59.75)"><tspan class="cls-4">H</tspan><tspan x="28.11" y="0">e</tspan><tspan class="cls-4" x="53.97" y="0">r</tspan><tspan x="67.63" y="0">o</tspan><tspan class="cls-1" x="92.4" y="0">Doc</tspan></text></g></g></svg>