<svg xmlns="http://www.w3.org/2000/svg" viewBox="0 0 405.17 144.67"><defs><style>.cls-1{fill:#e74f84;}.cls-2,.cls-3{fill:#3f4179;}.cls-3{font-size:62.84px;font-family:Hero-Bold, Hero;font-weight:700;}.cls-4{letter-spacing:-0.01em;}.cls-5{letter-spacing:-0.01em;}</style></defs><g id="Layer_2" data-name="Layer 2"><g id="Layer_1-2" data-name="Layer 1"><path class="cls-1" d="M94.8,54.44H81.19V40.83a7.1,7.1,0,0,0-7.1-7.11H61.66a7.1,7.1,0,0,0-7.1,7.11V54.44H41a7.1,7.1,0,0,0-7.1,7.1V74a7.1,7.1,0,0,0,7.1,7.1H54.56V94.68a7.1,7.1,0,0,0,7.1,7.1H74.09a7.1,7.1,0,0,0,7.1-7.1V81.07H94.8a7.1,7.1,0,0,0,7.11-7.1V61.54A7.1,7.1,0,0,0,94.8,54.44Z"/><path class="cls-2" d="M121.57,109.77a67.83,67.83,0,0,0-14.52-96.91,12.64,12.64,0,0,0,.09-1.39,11.51,11.51,0,1,0-4.63,9.19,58.84,58.84,0,0,1,11.7,84c-3,3.78-1.47,9.69,1.45,19.8a91.86,91.86,0,0,1,2.68,10.91c-2.88-1-7.68-3.56-11.09-5.41-6.63-3.6-12.36-6.71-16.66-6.71a7.91,7.91,0,0,0-2.67.44,58.88,58.88,0,0,1-54.68-103,11.46,11.46,0,1,0-4.63-9.19,12.83,12.83,0,0,0,.09,1.4,67.87,67.87,0,0,0,62,119.32c2.14.12,8.21,3.42,12.26,5.62,6.78,3.68,12.64,6.86,17.09,6.86a7.33,7.33,0,0,0,4.45-1.36c4.89-3.61,2.63-11.45-.23-21.37C123.18,118.12,121.37,111.84,121.57,109.77Z"/><text class="cls-3" transform="translate(153.83 89.89)"><tspan class="cls-4">H</tspan><tspan x="42.29" y="0">e</tspan><tspan class="cls-5" x="81.18" y="0">r</tspan><tspan x="101.73" y="0">oDoc</tspan></text></g></g></svg>