<svg xmlns="http://www.w3.org/2000/svg" viewBox="0 0 250.08 222.33"><defs><style>.cls-1{fill:#e74f84;}.cls-2,.cls-3{fill:#3f4179;}.cls-3{font-size:62.52px;font-family:Hero-Bold, Hero;font-weight:700;}.cls-4{letter-spacing:-0.01em;}</style></defs><g id="Layer_2" data-name="Layer 2"><g id="Layer_1-2" data-name="Layer 1"><path class="cls-1" d="M151.84,54.17H138.29V40.62a7.07,7.07,0,0,0-7.06-7.07H118.86a7.08,7.08,0,0,0-7.07,7.07V54.17H98.25a7.07,7.07,0,0,0-7.07,7.06V73.6a7.07,7.07,0,0,0,7.07,7.06h13.54V94.21a7.07,7.07,0,0,0,7.07,7.06h12.37a7.06,7.06,0,0,0,7.06-7.06V80.66h13.55a7.06,7.06,0,0,0,7.06-7.06V61.23A7.06,7.06,0,0,0,151.84,54.17Z"/><path class="cls-2" d="M178.47,109.22A67.48,67.48,0,0,0,164,12.8a12.81,12.81,0,0,0,.09-1.39,11.44,11.44,0,1,0-4.6,9.14,58.56,58.56,0,0,1,11.64,83.54c-3,3.77-1.46,9.64,1.43,19.71a88.71,88.71,0,0,1,2.67,10.86c-2.86-.95-7.64-3.55-11-5.39-6.6-3.58-12.3-6.68-16.58-6.68A7.84,7.84,0,0,0,145,123,58.59,58.59,0,0,1,90.58,20.55,11.4,11.4,0,1,0,86,11.41a10.73,10.73,0,0,0,.1,1.4,67.52,67.52,0,0,0,61.69,118.71c2.13.13,8.18,3.41,12.2,5.6,6.75,3.67,12.58,6.83,17,6.83a7.31,7.31,0,0,0,4.43-1.36c4.86-3.59,2.61-11.39-.23-21.26C180.07,117.53,178.27,111.28,178.47,109.22Z"/><text class="cls-3" transform="translate(0 206.07)"><tspan class="cls-4">H</tspan><tspan x="42.08" y="0">e</tspan><tspan class="cls-4" x="80.78" y="0">r</tspan><tspan x="101.22" y="0">o</tspan><tspan class="cls-1" x="138.3" y="0">Doc</tspan></text></g></g></svg>