<svg xmlns="http://www.w3.org/2000/svg" viewBox="0 0 392.89 120.08"><defs><style>.cls-1{fill:#e74f84;}.cls-2,.cls-3{fill:#3f4179;}.cls-3{font-size:66.01px;font-family:Hero-Bold, Hero;font-weight:700;}.cls-4{letter-spacing:-0.01em;}.cls-5{letter-spacing:0em;}</style></defs><g id="Layer_2" data-name="Layer 2"><g id="Layer_1-2" data-name="Layer 1"><path class="cls-1" d="M358.9,45.18H347.61V33.89a5.9,5.9,0,0,0-5.9-5.9H331.4a5.9,5.9,0,0,0-5.9,5.9V45.18H314.2a5.9,5.9,0,0,0-5.89,5.9V61.4a5.89,5.89,0,0,0,5.89,5.89h11.3v11.3a5.9,5.9,0,0,0,5.9,5.89h10.31a5.9,5.9,0,0,0,5.9-5.89V67.29H358.9a5.9,5.9,0,0,0,5.9-5.89V51.08A5.9,5.9,0,0,0,358.9,45.18Z"/><path class="cls-2" d="M381.13,91.11a56.31,56.31,0,0,0-12.06-80.43,11.11,11.11,0,0,0,.08-1.16,9.54,9.54,0,1,0-3.84,7.63,48.82,48.82,0,0,1,20.13,39.5A48.33,48.33,0,0,1,375,86.83c-2.46,3.14-1.22,8,1.2,16.45a74.83,74.83,0,0,1,2.23,9,71.86,71.86,0,0,1-9.2-4.49c-5.51-3-10.27-5.57-13.84-5.57a6.61,6.61,0,0,0-2.21.36A48.88,48.88,0,0,1,307.8,17.14,9.51,9.51,0,1,0,304,9.52a9.2,9.2,0,0,0,.08,1.17,56.33,56.33,0,0,0,51.47,99c1.77.1,6.81,2.84,10.17,4.67,5.63,3,10.49,5.69,14.19,5.69a6.11,6.11,0,0,0,3.7-1.13c4.05-3,2.17-9.5-.2-17.74C382.46,98,381,92.83,381.13,91.11Z"/><text class="cls-3" transform="translate(0 78.48)"><tspan class="cls-4">H</tspan><tspan class="cls-5" x="44.43" y="0">e</tspan><tspan class="cls-4" x="85.29" y="0">r</tspan><tspan x="106.88" y="0">oDoc</tspan></text></g></g></svg>