<svg xmlns="http://www.w3.org/2000/svg" viewBox="0 0 315.48 151.3"><defs><style>.cls-1{fill:#e74f84;}.cls-2,.cls-3{fill:#3f4179;}.cls-3{font-size:76.01px;font-family:Hero-Bold, Hero;font-weight:700;}.cls-4{letter-spacing:-0.01em;}</style></defs><g id="Layer_2" data-name="Layer 2"><g id="Layer_1-2" data-name="Layer 1"><path class="cls-1" d="M90.31,51.86h-13v-13a6.77,6.77,0,0,0-6.77-6.76H58.74A6.76,6.76,0,0,0,52,38.89v13H39a6.77,6.77,0,0,0-6.77,6.77V70.46A6.77,6.77,0,0,0,39,77.23H52v13A6.76,6.76,0,0,0,58.74,97H70.58a6.77,6.77,0,0,0,6.77-6.76v-13h13a6.77,6.77,0,0,0,6.77-6.77V58.63A6.77,6.77,0,0,0,90.31,51.86Z"/><path class="cls-2" d="M115.82,104.57A64.63,64.63,0,0,0,102,12.25a11.42,11.42,0,0,0,.09-1.33,11,11,0,1,0-4.41,8.76,56.06,56.06,0,0,1,11.14,80c-2.83,3.6-1.4,9.23,1.38,18.87a86.16,86.16,0,0,1,2.56,10.39c-2.75-.9-7.32-3.39-10.56-5.15-6.33-3.43-11.79-6.4-15.88-6.4a7.44,7.44,0,0,0-2.54.43,56.1,56.1,0,0,1-52.1-98.12,10.92,10.92,0,1,0-4.4-8.76,9.83,9.83,0,0,0,.09,1.34A64.65,64.65,0,0,0,86.41,125.93c2,.12,7.83,3.26,11.69,5.36,6.45,3.5,12,6.53,16.28,6.53a7,7,0,0,0,4.24-1.3c4.65-3.44,2.5-10.9-.22-20.35C117.35,112.53,115.62,106.54,115.82,104.57Z"/><text class="cls-3" transform="translate(147.35 68.15)"><tspan class="cls-4">H</tspan><tspan x="51.15" y="0">e</tspan><tspan class="cls-4" x="98.2" y="0">r</tspan><tspan x="123.06" y="0">o</tspan><tspan class="cls-1"><tspan x="0" y="63.39">Doc</tspan></tspan></text></g></g></svg>