<svg xmlns="http://www.w3.org/2000/svg" viewBox="0 0 292.24 89.32"><defs><style>.cls-1{fill:#e74f84;}.cls-2,.cls-3{fill:#3f4179;}.cls-3{font-size:49.1px;font-family:Hero-Bold, Hero;font-weight:700;}.cls-4{letter-spacing:-0.01em;}</style></defs><g id="Layer_2" data-name="Layer 2"><g id="Layer_1-2" data-name="Layer 1"><path class="cls-1" d="M267,33.61h-8.41v-8.4a4.38,4.38,0,0,0-4.38-4.39H246.5a4.38,4.38,0,0,0-4.39,4.39v8.4h-8.4A4.39,4.39,0,0,0,229.32,38v7.68a4.39,4.39,0,0,0,4.39,4.38h8.4v8.41a4.38,4.38,0,0,0,4.39,4.38h7.67a4.38,4.38,0,0,0,4.38-4.38V50.05H267a4.38,4.38,0,0,0,4.38-4.38V38A4.38,4.38,0,0,0,267,33.61Z"/><path class="cls-2" d="M283.49,67.77a41.88,41.88,0,0,0-9-59.83,8.11,8.11,0,0,0,.05-.86,7.1,7.1,0,1,0-2.85,5.67,36.33,36.33,0,0,1,7.22,51.84c-1.84,2.33-.91,6,.89,12.23a55.78,55.78,0,0,1,1.66,6.73,54.59,54.59,0,0,1-6.85-3.34c-4.09-2.22-7.63-4.14-10.29-4.14a4.82,4.82,0,0,0-1.64.27A36.36,36.36,0,0,1,229,12.75a7.07,7.07,0,1,0-2.86-5.67,6.36,6.36,0,0,0,.06.87,41.9,41.9,0,0,0,38.28,73.66c1.32.08,5.07,2.12,7.57,3.47,4.19,2.28,7.8,4.24,10.55,4.24a4.51,4.51,0,0,0,2.75-.84c3-2.23,1.62-7.07-.14-13.2C284.48,72.93,283.36,69.05,283.49,67.77Z"/><text class="cls-3" transform="translate(0 58.37)"><tspan class="cls-4">H</tspan><tspan x="33.05" y="0">e</tspan><tspan class="cls-4" x="63.44" y="0">r</tspan><tspan x="79.5" y="0">o</tspan><tspan class="cls-1" x="108.61" y="0">Doc</tspan></text></g></g></svg>