<svg xmlns="http://www.w3.org/2000/svg" viewBox="0 0 333.46 159.92"><defs><style>.cls-1{fill:#e74f84;}.cls-2,.cls-3{fill:#3f4179;}.cls-3{font-size:80.34px;font-family:Hero-Bold, Hero;font-weight:700;}.cls-4{letter-spacing:-0.01em;}.cls-5{letter-spacing:0em;}</style></defs><g id="Layer_2" data-name="Layer 2"><g id="Layer_1-2" data-name="Layer 1"><path class="cls-1" d="M95.46,54.82H81.75V41.11A7.15,7.15,0,0,0,74.6,34H62.09a7.15,7.15,0,0,0-7.15,7.15V54.82H41.23A7.15,7.15,0,0,0,34.08,62V74.48a7.15,7.15,0,0,0,7.15,7.15H54.94V95.34a7.15,7.15,0,0,0,7.15,7.15H74.6a7.15,7.15,0,0,0,7.15-7.15V81.63H95.46a7.15,7.15,0,0,0,7.15-7.15V62A7.15,7.15,0,0,0,95.46,54.82Z"/><path class="cls-2" d="M122.42,110.53A68.31,68.31,0,0,0,107.79,13a10.85,10.85,0,0,0,.09-1.4,11.58,11.58,0,1,0-4.65,9.25A59.25,59.25,0,0,1,115,105.34c-3,3.81-1.48,9.76,1.46,20a90.68,90.68,0,0,1,2.7,11c-2.9-1-7.74-3.58-11.16-5.44-6.68-3.63-12.45-6.77-16.79-6.77a7.77,7.77,0,0,0-2.68.45A59.29,59.29,0,0,1,33.47,20.8a11.54,11.54,0,1,0-4.66-9.25A13,13,0,0,0,28.9,13,68.34,68.34,0,0,0,91.34,133.1c2.15.13,8.27,3.45,12.35,5.67,6.82,3.71,12.72,6.91,17.2,6.91a7.42,7.42,0,0,0,4.49-1.38c4.91-3.64,2.64-11.53-.24-21.51C124,118.94,122.21,112.61,122.42,110.53Z"/><text class="cls-3" transform="translate(155.75 72.03)"><tspan class="cls-4">H<tspan class="cls-5" x="54.07" y="0">e</tspan><tspan x="103.8" y="0">r</tspan><tspan class="cls-5" x="130.07" y="0">o</tspan></tspan><tspan x="0" y="67">Doc</tspan></text></g></g></svg>