<svg xmlns="http://www.w3.org/2000/svg" viewBox="0 0 250.15 222.38"><defs><style>.cls-1{fill:#e74f84;}.cls-2,.cls-3{fill:#3f4179;}.cls-3{font-size:62.54px;font-family:Hero-Bold, Hero;font-weight:700;}.cls-4{letter-spacing:-0.01em;}.cls-5{letter-spacing:0em;}</style></defs><g id="Layer_2" data-name="Layer 2"><g id="Layer_1-2" data-name="Layer 1"><path class="cls-1" d="M151.87,54.18H138.33V40.63a7.08,7.08,0,0,0-7.07-7.07H118.89a7.07,7.07,0,0,0-7.07,7.07V54.18H98.27a7.07,7.07,0,0,0-7.07,7.07V73.62a7.07,7.07,0,0,0,7.07,7.06h13.55V94.23a7.06,7.06,0,0,0,7.07,7.07h12.37a7.07,7.07,0,0,0,7.07-7.07V80.68h13.54a7.06,7.06,0,0,0,7.07-7.06V61.25A7.06,7.06,0,0,0,151.87,54.18Z"/><path class="cls-2" d="M178.52,109.25A67.51,67.51,0,0,0,164.06,12.8a12.64,12.64,0,0,0,.09-1.39,11.44,11.44,0,1,0-4.6,9.15,58.58,58.58,0,0,1,11.64,83.56c-3,3.76-1.46,9.64,1.44,19.71a92.53,92.53,0,0,1,2.67,10.86c-2.87-.95-7.65-3.54-11-5.38-6.6-3.59-12.3-6.69-16.58-6.69a7.85,7.85,0,0,0-2.66.44A58.6,58.6,0,0,1,90.6,20.56,11.4,11.4,0,1,0,86,11.41a10.73,10.73,0,0,0,.1,1.4A67.55,67.55,0,0,0,147.8,131.56c2.13.12,8.17,3.41,12.2,5.6,6.75,3.66,12.58,6.83,17,6.83a7.23,7.23,0,0,0,4.43-1.37c4.86-3.59,2.61-11.39-.23-21.26C180.12,117.56,178.31,111.3,178.52,109.25Z"/><text class="cls-3" transform="translate(0 206.12)"><tspan class="cls-4">H</tspan><tspan x="42.09" y="0">e</tspan><tspan class="cls-4" x="80.8" y="0">r</tspan><tspan class="cls-5" x="101.25" y="0">oDoc</tspan></text></g></g></svg>